<?xml version="1.0" encoding="UTF-8"?>
<mxfile host="app.diagrams.net" agent="Mozilla/5.0 (Macintosh; Intel Mac OS X 10_15_7) AppleWebKit/537.36 (KHTML, like Gecko) Chrome/128.0.0.0 Safari/537.36" version="24.7.14">
  <diagram name="Page-1" id="kVolZarTPUpEbiLgXkwt">
    <mxGraphModel dx="1482" dy="785" grid="1" gridSize="10" guides="1" tooltips="1" connect="1" arrows="1" fold="1" page="1" pageScale="1" pageWidth="850" pageHeight="1100" math="0" shadow="0">
      <root>
        <mxCell id="0" />
        <mxCell id="1" parent="0" />
        <mxCell id="yuIH91TVLukH0DlKHoF1-1" value="User" style="shape=umlActor;verticalLabelPosition=bottom;verticalAlign=top;html=1;outlineConnect=0;" vertex="1" parent="1">
          <mxGeometry x="26" y="200" width="30" height="60" as="geometry" />
        </mxCell>
        <mxCell id="yuIH91TVLukH0DlKHoF1-2" value=":UI" style="shape=umlLifeline;perimeter=lifelinePerimeter;whiteSpace=wrap;html=1;container=1;dropTarget=0;collapsible=0;recursiveResize=0;outlineConnect=0;portConstraint=eastwest;newEdgeStyle={&quot;curved&quot;:0,&quot;rounded&quot;:0};" vertex="1" parent="1">
          <mxGeometry x="120" y="80" width="100" height="520" as="geometry" />
        </mxCell>
        <mxCell id="yuIH91TVLukH0DlKHoF1-5" value=":API/Backend server" style="shape=umlLifeline;perimeter=lifelinePerimeter;whiteSpace=wrap;html=1;container=1;dropTarget=0;collapsible=0;recursiveResize=0;outlineConnect=0;portConstraint=eastwest;newEdgeStyle={&quot;curved&quot;:0,&quot;rounded&quot;:0};" vertex="1" parent="1">
          <mxGeometry x="320" y="80" width="100" height="520" as="geometry" />
        </mxCell>
        <mxCell id="yuIH91TVLukH0DlKHoF1-6" value="" style="html=1;points=[[0,0,0,0,5],[0,1,0,0,-5],[1,0,0,0,5],[1,1,0,0,-5]];perimeter=orthogonalPerimeter;outlineConnect=0;targetShapes=umlLifeline;portConstraint=eastwest;newEdgeStyle={&quot;curved&quot;:0,&quot;rounded&quot;:0};" vertex="1" parent="yuIH91TVLukH0DlKHoF1-5">
          <mxGeometry x="45" y="80" width="10" height="130" as="geometry" />
        </mxCell>
        <mxCell id="yuIH91TVLukH0DlKHoF1-10" value="" style="html=1;points=[[0,0,0,0,5],[0,1,0,0,-5],[1,0,0,0,5],[1,1,0,0,-5]];perimeter=orthogonalPerimeter;outlineConnect=0;targetShapes=umlLifeline;portConstraint=eastwest;newEdgeStyle={&quot;curved&quot;:0,&quot;rounded&quot;:0};" vertex="1" parent="yuIH91TVLukH0DlKHoF1-5">
          <mxGeometry x="45" y="110" width="10" height="10" as="geometry" />
        </mxCell>
        <mxCell id="yuIH91TVLukH0DlKHoF1-11" value="validation/santization" style="html=1;align=left;spacingLeft=2;endArrow=block;rounded=0;edgeStyle=orthogonalEdgeStyle;curved=0;rounded=0;" edge="1" target="yuIH91TVLukH0DlKHoF1-10" parent="yuIH91TVLukH0DlKHoF1-5">
          <mxGeometry relative="1" as="geometry">
            <mxPoint x="55" y="80" as="sourcePoint" />
            <Array as="points">
              <mxPoint x="55" y="100" />
              <mxPoint x="85" y="100" />
              <mxPoint x="85" y="120" />
            </Array>
          </mxGeometry>
        </mxCell>
        <mxCell id="yuIH91TVLukH0DlKHoF1-18" value="" style="html=1;points=[[0,0,0,0,5],[0,1,0,0,-5],[1,0,0,0,5],[1,1,0,0,-5]];perimeter=orthogonalPerimeter;outlineConnect=0;targetShapes=umlLifeline;portConstraint=eastwest;newEdgeStyle={&quot;curved&quot;:0,&quot;rounded&quot;:0};" vertex="1" parent="yuIH91TVLukH0DlKHoF1-5">
          <mxGeometry x="50" y="160" width="10" height="40" as="geometry" />
        </mxCell>
        <mxCell id="yuIH91TVLukH0DlKHoF1-19" value="persist request" style="html=1;align=left;spacingLeft=2;endArrow=block;rounded=0;edgeStyle=orthogonalEdgeStyle;curved=0;rounded=0;" edge="1" target="yuIH91TVLukH0DlKHoF1-18" parent="yuIH91TVLukH0DlKHoF1-5">
          <mxGeometry relative="1" as="geometry">
            <mxPoint x="55" y="140" as="sourcePoint" />
            <Array as="points">
              <mxPoint x="55" y="150" />
              <mxPoint x="85" y="150" />
              <mxPoint x="85" y="170" />
            </Array>
          </mxGeometry>
        </mxCell>
        <mxCell id="yuIH91TVLukH0DlKHoF1-23" value="" style="html=1;points=[[0,0,0,0,5],[0,1,0,0,-5],[1,0,0,0,5],[1,1,0,0,-5]];perimeter=orthogonalPerimeter;outlineConnect=0;targetShapes=umlLifeline;portConstraint=eastwest;newEdgeStyle={&quot;curved&quot;:0,&quot;rounded&quot;:0};" vertex="1" parent="yuIH91TVLukH0DlKHoF1-5">
          <mxGeometry x="43" y="250" width="10" height="110" as="geometry" />
        </mxCell>
        <mxCell id="yuIH91TVLukH0DlKHoF1-7" value="submits modification request" style="html=1;verticalAlign=bottom;startArrow=oval;endArrow=block;startSize=8;curved=0;rounded=0;entryX=0;entryY=0;entryDx=0;entryDy=5;" edge="1" target="yuIH91TVLukH0DlKHoF1-6" parent="1" source="yuIH91TVLukH0DlKHoF1-2">
          <mxGeometry relative="1" as="geometry">
            <mxPoint x="300" y="165" as="sourcePoint" />
          </mxGeometry>
        </mxCell>
        <mxCell id="yuIH91TVLukH0DlKHoF1-13" style="edgeStyle=orthogonalEdgeStyle;rounded=0;orthogonalLoop=1;jettySize=auto;html=1;curved=0;" edge="1" parent="1">
          <mxGeometry relative="1" as="geometry">
            <mxPoint x="365" y="284" as="sourcePoint" />
            <mxPoint x="169.5" y="289" as="targetPoint" />
            <Array as="points">
              <mxPoint x="365" y="289" />
            </Array>
          </mxGeometry>
        </mxCell>
        <mxCell id="yuIH91TVLukH0DlKHoF1-14" value="redirect for MFA&lt;br&gt;with request id" style="edgeLabel;html=1;align=center;verticalAlign=middle;resizable=0;points=[];" vertex="1" connectable="0" parent="yuIH91TVLukH0DlKHoF1-13">
          <mxGeometry x="-0.0224" relative="1" as="geometry">
            <mxPoint y="-17" as="offset" />
          </mxGeometry>
        </mxCell>
        <mxCell id="yuIH91TVLukH0DlKHoF1-16" style="edgeStyle=orthogonalEdgeStyle;rounded=0;orthogonalLoop=1;jettySize=auto;html=1;curved=0;" edge="1" parent="1">
          <mxGeometry relative="1" as="geometry">
            <mxPoint x="365" y="206" as="sourcePoint" />
            <mxPoint x="169.5" y="206" as="targetPoint" />
            <Array as="points">
              <mxPoint x="230" y="206" />
              <mxPoint x="230" y="206" />
            </Array>
          </mxGeometry>
        </mxCell>
        <mxCell id="yuIH91TVLukH0DlKHoF1-17" value="error(validation failure)" style="edgeLabel;html=1;align=center;verticalAlign=middle;resizable=0;points=[];" vertex="1" connectable="0" parent="yuIH91TVLukH0DlKHoF1-16">
          <mxGeometry x="0.0537" y="-1" relative="1" as="geometry">
            <mxPoint x="8" y="-8" as="offset" />
          </mxGeometry>
        </mxCell>
        <mxCell id="yuIH91TVLukH0DlKHoF1-24" value="validate PIN for requestID" style="html=1;verticalAlign=bottom;endArrow=block;curved=0;rounded=0;entryX=0;entryY=0;entryDx=0;entryDy=5;" edge="1" parent="1">
          <mxGeometry relative="1" as="geometry">
            <mxPoint x="169.5" y="331" as="sourcePoint" />
            <mxPoint x="360" y="331" as="targetPoint" />
          </mxGeometry>
        </mxCell>
        <mxCell id="yuIH91TVLukH0DlKHoF1-25" value="success/failure redirect&lt;br&gt;&amp;nbsp;to website page" style="html=1;verticalAlign=bottom;endArrow=open;dashed=1;endSize=8;curved=0;rounded=0;exitX=0;exitY=1;exitDx=0;exitDy=-5;" edge="1" parent="1">
          <mxGeometry relative="1" as="geometry">
            <mxPoint x="169.5" y="438" as="targetPoint" />
            <mxPoint x="360" y="438" as="sourcePoint" />
          </mxGeometry>
        </mxCell>
        <mxCell id="yuIH91TVLukH0DlKHoF1-32" value=":MFA Validator" style="shape=umlLifeline;perimeter=lifelinePerimeter;whiteSpace=wrap;html=1;container=1;dropTarget=0;collapsible=0;recursiveResize=0;outlineConnect=0;portConstraint=eastwest;newEdgeStyle={&quot;curved&quot;:0,&quot;rounded&quot;:0};" vertex="1" parent="1">
          <mxGeometry x="520" y="80" width="100" height="520" as="geometry" />
        </mxCell>
        <mxCell id="yuIH91TVLukH0DlKHoF1-41" value="" style="html=1;points=[[0,0,0,0,5],[0,1,0,0,-5],[1,0,0,0,5],[1,1,0,0,-5]];perimeter=orthogonalPerimeter;outlineConnect=0;targetShapes=umlLifeline;portConstraint=eastwest;newEdgeStyle={&quot;curved&quot;:0,&quot;rounded&quot;:0};" vertex="1" parent="yuIH91TVLukH0DlKHoF1-32">
          <mxGeometry x="45" y="250" width="10" height="30" as="geometry" />
        </mxCell>
        <mxCell id="yuIH91TVLukH0DlKHoF1-42" value="validate" style="html=1;verticalAlign=bottom;endArrow=block;curved=0;rounded=0;entryX=0;entryY=0;entryDx=0;entryDy=5;exitX=1;exitY=0;exitDx=0;exitDy=5;exitPerimeter=0;" edge="1" target="yuIH91TVLukH0DlKHoF1-41" parent="1" source="yuIH91TVLukH0DlKHoF1-23">
          <mxGeometry relative="1" as="geometry">
            <mxPoint x="380" y="335" as="sourcePoint" />
          </mxGeometry>
        </mxCell>
        <mxCell id="yuIH91TVLukH0DlKHoF1-43" value="success/failure" style="html=1;verticalAlign=bottom;endArrow=open;dashed=1;endSize=8;curved=0;rounded=0;exitX=0;exitY=1;exitDx=0;exitDy=-5;" edge="1" source="yuIH91TVLukH0DlKHoF1-41" parent="1" target="yuIH91TVLukH0DlKHoF1-23">
          <mxGeometry relative="1" as="geometry">
            <mxPoint x="380" y="355" as="targetPoint" />
          </mxGeometry>
        </mxCell>
        <mxCell id="yuIH91TVLukH0DlKHoF1-44" value=":Workflow Processor" style="shape=umlLifeline;perimeter=lifelinePerimeter;whiteSpace=wrap;html=1;container=1;dropTarget=0;collapsible=0;recursiveResize=0;outlineConnect=0;portConstraint=eastwest;newEdgeStyle={&quot;curved&quot;:0,&quot;rounded&quot;:0};" vertex="1" parent="1">
          <mxGeometry x="680" y="80" width="100" height="520" as="geometry" />
        </mxCell>
        <mxCell id="yuIH91TVLukH0DlKHoF1-46" value="" style="html=1;points=[[0,0,0,0,5],[0,1,0,0,-5],[1,0,0,0,5],[1,1,0,0,-5]];perimeter=orthogonalPerimeter;outlineConnect=0;targetShapes=umlLifeline;portConstraint=eastwest;newEdgeStyle={&quot;curved&quot;:0,&quot;rounded&quot;:0};" vertex="1" parent="yuIH91TVLukH0DlKHoF1-44">
          <mxGeometry x="45" y="290" width="10" height="60" as="geometry" />
        </mxCell>
        <mxCell id="yuIH91TVLukH0DlKHoF1-59" value="" style="html=1;points=[[0,0,0,0,5],[0,1,0,0,-5],[1,0,0,0,5],[1,1,0,0,-5]];perimeter=orthogonalPerimeter;outlineConnect=0;targetShapes=umlLifeline;portConstraint=eastwest;newEdgeStyle={&quot;curved&quot;:0,&quot;rounded&quot;:0};" vertex="1" parent="yuIH91TVLukH0DlKHoF1-44">
          <mxGeometry x="50" y="310" width="10" height="20" as="geometry" />
        </mxCell>
        <mxCell id="yuIH91TVLukH0DlKHoF1-60" value="execute" style="html=1;align=left;spacingLeft=2;endArrow=block;rounded=0;edgeStyle=orthogonalEdgeStyle;curved=0;rounded=0;" edge="1" target="yuIH91TVLukH0DlKHoF1-59" parent="yuIH91TVLukH0DlKHoF1-44">
          <mxGeometry relative="1" as="geometry">
            <mxPoint x="55" y="290" as="sourcePoint" />
            <Array as="points">
              <mxPoint x="55" y="300" />
              <mxPoint x="85" y="300" />
              <mxPoint x="85" y="320" />
            </Array>
          </mxGeometry>
        </mxCell>
        <mxCell id="yuIH91TVLukH0DlKHoF1-72" value="" style="html=1;points=[[0,0,0,0,5],[0,1,0,0,-5],[1,0,0,0,5],[1,1,0,0,-5]];perimeter=orthogonalPerimeter;outlineConnect=0;targetShapes=umlLifeline;portConstraint=eastwest;newEdgeStyle={&quot;curved&quot;:0,&quot;rounded&quot;:0};" vertex="1" parent="yuIH91TVLukH0DlKHoF1-44">
          <mxGeometry x="45" y="386" width="10" height="14" as="geometry" />
        </mxCell>
        <mxCell id="yuIH91TVLukH0DlKHoF1-47" value="trigger workflow(requestId)&amp;nbsp;" style="html=1;verticalAlign=bottom;endArrow=block;curved=0;rounded=0;entryX=0;entryY=0;entryDx=0;entryDy=5;" edge="1" target="yuIH91TVLukH0DlKHoF1-46" parent="1" source="yuIH91TVLukH0DlKHoF1-23">
          <mxGeometry relative="1" as="geometry">
            <mxPoint x="380" y="375" as="sourcePoint" />
          </mxGeometry>
        </mxCell>
        <mxCell id="yuIH91TVLukH0DlKHoF1-48" value="sync / async success/failure response result&amp;nbsp;" style="html=1;verticalAlign=bottom;endArrow=open;dashed=1;endSize=8;curved=0;rounded=0;exitX=0;exitY=1;exitDx=0;exitDy=-5;" edge="1" source="yuIH91TVLukH0DlKHoF1-46" parent="1" target="yuIH91TVLukH0DlKHoF1-5">
          <mxGeometry relative="1" as="geometry">
            <mxPoint x="370" y="405" as="targetPoint" />
          </mxGeometry>
        </mxCell>
        <mxCell id="yuIH91TVLukH0DlKHoF1-61" value=":blob storage" style="shape=umlLifeline;perimeter=lifelinePerimeter;whiteSpace=wrap;html=1;container=1;dropTarget=0;collapsible=0;recursiveResize=0;outlineConnect=0;portConstraint=eastwest;newEdgeStyle={&quot;curved&quot;:0,&quot;rounded&quot;:0};" vertex="1" parent="1">
          <mxGeometry x="842" y="80" width="100" height="520" as="geometry" />
        </mxCell>
        <mxCell id="yuIH91TVLukH0DlKHoF1-62" value="" style="html=1;points=[[0,0,0,0,5],[0,1,0,0,-5],[1,0,0,0,5],[1,1,0,0,-5]];perimeter=orthogonalPerimeter;outlineConnect=0;targetShapes=umlLifeline;portConstraint=eastwest;newEdgeStyle={&quot;curved&quot;:0,&quot;rounded&quot;:0};" vertex="1" parent="yuIH91TVLukH0DlKHoF1-61">
          <mxGeometry x="45" y="181" width="10" height="10" as="geometry" />
        </mxCell>
        <mxCell id="yuIH91TVLukH0DlKHoF1-64" value="" style="html=1;verticalAlign=bottom;endArrow=open;dashed=1;endSize=8;curved=0;rounded=0;" edge="1" parent="1">
          <mxGeometry relative="1" as="geometry">
            <mxPoint x="380" y="270" as="targetPoint" />
            <Array as="points" />
            <mxPoint x="885" y="272" as="sourcePoint" />
          </mxGeometry>
        </mxCell>
        <mxCell id="yuIH91TVLukH0DlKHoF1-63" value="upload docs to tied to request ID" style="html=1;verticalAlign=bottom;endArrow=block;curved=0;rounded=0;entryX=0;entryY=0;entryDx=0;entryDy=5;entryPerimeter=0;" edge="1" parent="1" source="yuIH91TVLukH0DlKHoF1-18">
          <mxGeometry relative="1" as="geometry">
            <mxPoint x="412" y="259" as="sourcePoint" />
            <mxPoint x="887" y="259" as="targetPoint" />
          </mxGeometry>
        </mxCell>
        <mxCell id="yuIH91TVLukH0DlKHoF1-66" value=":Notification System" style="shape=umlLifeline;perimeter=lifelinePerimeter;whiteSpace=wrap;html=1;container=1;dropTarget=0;collapsible=0;recursiveResize=0;outlineConnect=0;portConstraint=eastwest;newEdgeStyle={&quot;curved&quot;:0,&quot;rounded&quot;:0};" vertex="1" parent="1">
          <mxGeometry x="1000" y="80" width="100" height="520" as="geometry" />
        </mxCell>
        <mxCell id="yuIH91TVLukH0DlKHoF1-68" value="" style="html=1;points=[[0,0,0,0,5],[0,1,0,0,-5],[1,0,0,0,5],[1,1,0,0,-5]];perimeter=orthogonalPerimeter;outlineConnect=0;targetShapes=umlLifeline;portConstraint=eastwest;newEdgeStyle={&quot;curved&quot;:0,&quot;rounded&quot;:0};" vertex="1" parent="yuIH91TVLukH0DlKHoF1-66">
          <mxGeometry x="45" y="385" width="10" height="20" as="geometry" />
        </mxCell>
        <mxCell id="yuIH91TVLukH0DlKHoF1-79" style="edgeStyle=orthogonalEdgeStyle;rounded=0;orthogonalLoop=1;jettySize=auto;html=1;curved=0;exitX=0;exitY=1;exitDx=0;exitDy=-5;exitPerimeter=0;" edge="1" parent="yuIH91TVLukH0DlKHoF1-66" source="yuIH91TVLukH0DlKHoF1-76">
          <mxGeometry relative="1" as="geometry">
            <mxPoint x="-960" y="200" as="targetPoint" />
            <Array as="points">
              <mxPoint x="-959" y="463" />
            </Array>
          </mxGeometry>
        </mxCell>
        <mxCell id="yuIH91TVLukH0DlKHoF1-80" value="notify updation status" style="edgeLabel;html=1;align=center;verticalAlign=middle;resizable=0;points=[];" vertex="1" connectable="0" parent="yuIH91TVLukH0DlKHoF1-79">
          <mxGeometry x="-0.2079" y="-3" relative="1" as="geometry">
            <mxPoint as="offset" />
          </mxGeometry>
        </mxCell>
        <mxCell id="yuIH91TVLukH0DlKHoF1-76" value="" style="html=1;points=[[0,0,0,0,5],[0,1,0,0,-5],[1,0,0,0,5],[1,1,0,0,-5]];perimeter=orthogonalPerimeter;outlineConnect=0;targetShapes=umlLifeline;portConstraint=eastwest;newEdgeStyle={&quot;curved&quot;:0,&quot;rounded&quot;:0};" vertex="1" parent="yuIH91TVLukH0DlKHoF1-66">
          <mxGeometry x="45" y="450" width="10" height="18" as="geometry" />
        </mxCell>
        <mxCell id="yuIH91TVLukH0DlKHoF1-74" value="notify success/failure" style="html=1;verticalAlign=bottom;startArrow=oval;startFill=1;endArrow=block;startSize=8;curved=0;rounded=0;entryX=0;entryY=0;entryDx=0;entryDy=5;entryPerimeter=0;" edge="1" parent="1" target="yuIH91TVLukH0DlKHoF1-68">
          <mxGeometry width="60" relative="1" as="geometry">
            <mxPoint x="739" y="470" as="sourcePoint" />
            <mxPoint x="1039" y="470" as="targetPoint" />
          </mxGeometry>
        </mxCell>
      </root>
    </mxGraphModel>
  </diagram>
</mxfile>
